<svg width="221" height="221" viewBox="0 0 221 221" fill="none" xmlns="http://www.w3.org/2000/svg">
<path d="M58.6016 173.294V162.867C58.6016 134.075 81.9423 110.734 110.734 110.734C139.526 110.734 162.867 134.075 162.867 162.867V173.294" stroke="black" stroke-width="11.9602" stroke-linecap="round"/>
<path d="M110.735 110.734C128.011 110.734 142.014 96.7304 142.014 79.4547C142.014 62.1794 128.011 48.175 110.735 48.175C93.459 48.175 79.4551 62.1794 79.4551 79.4547C79.4551 96.7304 93.459 110.734 110.735 110.734Z" stroke="black" stroke-width="11.9602" stroke-linecap="round" stroke-linejoin="round"/>
<path d="M110.734 215C168.319 215 215 168.319 215 110.734C215 53.1501 168.319 6.46875 110.734 6.46875C53.1501 6.46875 6.46875 53.1501 6.46875 110.734C6.46875 168.319 53.1501 215 110.734 215Z" stroke="black" stroke-width="11.9602"/>
</svg>
